<svg xmlns="http://www.w3.org/2000/svg" viewBox="0 0 32 32">
  <defs>
    <linearGradient id="sky" gradientUnits="userSpaceOnUse" x1="0" y1="0" x2="0" y2="32">
      <stop offset="0" stop-color="#070c26"/>
      <stop offset="1" stop-color="#172254"/>
    </linearGradient>
    <radialGradient id="glow" gradientUnits="userSpaceOnUse" cx="14.5" cy="15.5" r="14">
      <stop offset="0" stop-color="#dde5ff" stop-opacity="0.22"/>
      <stop offset="1" stop-color="#dde5ff" stop-opacity="0"/>
    </radialGradient>
  </defs>
  <rect width="32" height="32" rx="7" fill="url(#sky)"/>
  <rect width="32" height="32" rx="7" fill="url(#glow)"/>
  <!-- sparkle-emoji cluster: concave four-point stars -->
  <path d="M14.5 8.5 Q14.5 15.5 21.5 15.5 Q14.5 15.5 14.5 22.5 Q14.5 15.5 7.5 15.5 Q14.5 15.5 14.5 8.5 Z" fill="#eef2ff" opacity="0.95"/>
  <path d="M24 7.5 Q24 10.5 27 10.5 Q24 10.5 24 13.5 Q24 10.5 21 10.5 Q24 10.5 24 7.5 Z" fill="#eef2ff" opacity="0.75"/>
  <path d="M23 21.5 Q23 23.5 25 23.5 Q23 23.5 23 25.5 Q23 23.5 21 23.5 Q23 23.5 23 21.5 Z" fill="#eef2ff" opacity="0.55"/>
</svg>
